<svg xmlns="http://www.w3.org/2000/svg" width="505" height="197" viewBox="0 0 505 197">
  <g id="Group_282" data-name="Group 282" transform="translate(-1415 -165)">
    <g id="Rectangle_348" data-name="Rectangle 348" transform="translate(1611 165)" fill="none" stroke="#fe5eae" stroke-width="1">
      <rect width="29" height="29" stroke="none"/>
      <rect x="0.5" y="0.5" width="28" height="28" fill="none"/>
    </g>
    <g id="Rectangle_357" data-name="Rectangle 357" transform="translate(1555 165)" fill="none" stroke="#fe5eae" stroke-width="1">
      <rect width="29" height="29" stroke="none"/>
      <rect x="0.5" y="0.5" width="28" height="28" fill="none"/>
    </g>
    <g id="Rectangle_389" data-name="Rectangle 389" transform="translate(1723 165)" fill="none" stroke="#fe5eae" stroke-width="1">
      <rect width="29" height="29" stroke="none"/>
      <rect x="0.5" y="0.5" width="28" height="28" fill="none"/>
    </g>
    <g id="Rectangle_393" data-name="Rectangle 393" transform="translate(1779 165)" fill="none" stroke="#fe5eae" stroke-width="1">
      <rect width="29" height="29" stroke="none"/>
      <rect x="0.5" y="0.5" width="28" height="28" fill="none"/>
    </g>
    <g id="Rectangle_346" data-name="Rectangle 346" transform="translate(1639 193)" fill="none" stroke="#fe5eae" stroke-width="1">
      <rect width="29" height="29" stroke="none"/>
      <rect x="0.5" y="0.5" width="28" height="28" fill="none"/>
    </g>
    <g id="Rectangle_349" data-name="Rectangle 349" transform="translate(1583 193)" fill="none" stroke="#fe5eae" stroke-width="1" opacity="0.83">
      <rect width="29" height="29" stroke="none"/>
      <rect x="0.5" y="0.5" width="28" height="28" fill="none"/>
    </g>
    <g id="Rectangle_382" data-name="Rectangle 382" transform="translate(1695 193)" fill="none" stroke="#fe5eae" stroke-width="1">
      <rect width="29" height="29" stroke="none"/>
      <rect x="0.5" y="0.5" width="28" height="28" fill="none"/>
    </g>
    <g id="Rectangle_390" data-name="Rectangle 390" transform="translate(1723 193)" fill="none" stroke="#fe5eae" stroke-width="1">
      <rect width="29" height="29" stroke="none"/>
      <rect x="0.5" y="0.5" width="28" height="28" fill="none"/>
    </g>
    <g id="Rectangle_394" data-name="Rectangle 394" transform="translate(1779 193)" fill="none" stroke="#fe5eae" stroke-width="1">
      <rect width="29" height="29" stroke="none"/>
      <rect x="0.5" y="0.5" width="28" height="28" fill="none"/>
    </g>
    <g id="Rectangle_400" data-name="Rectangle 400" transform="translate(1835 193)" fill="none" stroke="#fe5eae" stroke-width="1">
      <rect width="29" height="29" stroke="none"/>
      <rect x="0.5" y="0.5" width="28" height="28" fill="none"/>
    </g>
    <g id="Rectangle_351" data-name="Rectangle 351" transform="translate(1555 277)" fill="none" stroke="#fe5eae" stroke-width="1" opacity="0.72">
      <rect width="29" height="29" stroke="none"/>
      <rect x="0.5" y="0.5" width="28" height="28" fill="none"/>
    </g>
    <g id="Rectangle_358" data-name="Rectangle 358" transform="translate(1499 277)" fill="none" stroke="#fe5eae" stroke-width="1" opacity="0.7">
      <rect width="29" height="29" stroke="none"/>
      <rect x="0.5" y="0.5" width="28" height="28" fill="none"/>
    </g>
    <g id="Rectangle_360" data-name="Rectangle 360" transform="translate(1611 277)" fill="none" stroke="#fe5eae" stroke-width="1">
      <rect width="29" height="29" stroke="none"/>
      <rect x="0.5" y="0.5" width="28" height="28" fill="none"/>
    </g>
    <g id="Rectangle_379" data-name="Rectangle 379" transform="translate(1667 277)" fill="none" stroke="#fe5eae" stroke-width="1">
      <rect width="29" height="29" stroke="none"/>
      <rect x="0.5" y="0.5" width="28" height="28" fill="none"/>
    </g>
    <g id="Rectangle_386" data-name="Rectangle 386" transform="translate(1723 277)" fill="none" stroke="#fe5eae" stroke-width="1">
      <rect width="29" height="29" stroke="none"/>
      <rect x="0.5" y="0.5" width="28" height="28" fill="none"/>
    </g>
    <g id="Rectangle_395" data-name="Rectangle 395" transform="translate(1779 277)" fill="none" stroke="#fe5eae" stroke-width="1">
      <rect width="29" height="29" stroke="none"/>
      <rect x="0.5" y="0.5" width="28" height="28" fill="none"/>
    </g>
    <g id="Rectangle_397" data-name="Rectangle 397" transform="translate(1807 277)" fill="none" stroke="#fe5eae" stroke-width="1">
      <rect width="29" height="29" stroke="none"/>
      <rect x="0.5" y="0.5" width="28" height="28" fill="none"/>
    </g>
    <g id="Rectangle_401" data-name="Rectangle 401" transform="translate(1863 277)" fill="none" stroke="#fe5eae" stroke-width="1">
      <rect width="29" height="29" stroke="none"/>
      <rect x="0.5" y="0.5" width="28" height="28" fill="none"/>
    </g>
    <g id="Rectangle_350" data-name="Rectangle 350" transform="translate(1583 249)" fill="none" stroke="#fe5eae" stroke-width="1" opacity="0.83">
      <rect width="29" height="29" stroke="none"/>
      <rect x="0.5" y="0.5" width="28" height="28" fill="none"/>
    </g>
    <g id="Rectangle_353" data-name="Rectangle 353" transform="translate(1527 249)" fill="none" stroke="#fe5eae" stroke-width="1" opacity="0.72">
      <rect width="29" height="29" stroke="none"/>
      <rect x="0.5" y="0.5" width="28" height="28" fill="none"/>
    </g>
    <g id="Rectangle_354" data-name="Rectangle 354" transform="translate(1639 249)" fill="none" stroke="#fe5eae" stroke-width="1">
      <rect width="29" height="29" stroke="none"/>
      <rect x="0.5" y="0.5" width="28" height="28" fill="none"/>
    </g>
    <g id="Rectangle_359" data-name="Rectangle 359" transform="translate(1471 249)" fill="none" stroke="#fe5eae" stroke-width="1" opacity="0.7">
      <rect width="29" height="29" stroke="none"/>
      <rect x="0.5" y="0.5" width="28" height="28" fill="none"/>
    </g>
    <g id="Rectangle_380" data-name="Rectangle 380" transform="translate(1667 249)" fill="none" stroke="#fe5eae" stroke-width="1">
      <rect width="29" height="29" stroke="none"/>
      <rect x="0.5" y="0.5" width="28" height="28" fill="none"/>
    </g>
    <g id="Rectangle_383" data-name="Rectangle 383" transform="translate(1695 249)" fill="none" stroke="#fe5eae" stroke-width="1">
      <rect width="29" height="29" stroke="none"/>
      <rect x="0.5" y="0.5" width="28" height="28" fill="none"/>
    </g>
    <g id="Rectangle_387" data-name="Rectangle 387" transform="translate(1723 249)" fill="none" stroke="#fe5eae" stroke-width="1">
      <rect width="29" height="29" stroke="none"/>
      <rect x="0.5" y="0.5" width="28" height="28" fill="none"/>
    </g>
    <g id="Rectangle_391" data-name="Rectangle 391" transform="translate(1751 249)" fill="none" stroke="#fe5eae" stroke-width="1">
      <rect width="29" height="29" stroke="none"/>
      <rect x="0.5" y="0.5" width="28" height="28" fill="none"/>
    </g>
    <g id="Rectangle_399" data-name="Rectangle 399" transform="translate(1807 249)" fill="none" stroke="#fe5eae" stroke-width="1">
      <rect width="29" height="29" stroke="none"/>
      <rect x="0.5" y="0.5" width="28" height="28" fill="none"/>
    </g>
    <g id="Rectangle_402" data-name="Rectangle 402" transform="translate(1863 249)" fill="none" stroke="#fe5eae" stroke-width="1">
      <rect width="29" height="29" stroke="none"/>
      <rect x="0.5" y="0.5" width="28" height="28" fill="none"/>
    </g>
    <g id="Rectangle_403" data-name="Rectangle 403" transform="translate(1835 249)" fill="none" stroke="#fe5eae" stroke-width="1">
      <rect width="29" height="29" stroke="none"/>
      <rect x="0.5" y="0.5" width="28" height="28" fill="none"/>
    </g>
    <g id="Rectangle_347" data-name="Rectangle 347" transform="translate(1611 221)" fill="none" stroke="#fe5eae" stroke-width="1">
      <rect width="29" height="29" stroke="none"/>
      <rect x="0.5" y="0.5" width="28" height="28" fill="none"/>
    </g>
    <g id="Rectangle_352" data-name="Rectangle 352" transform="translate(1555 221)" fill="none" stroke="#fe5eae" stroke-width="1" opacity="0.72">
      <rect width="29" height="29" stroke="none"/>
      <rect x="0.5" y="0.5" width="28" height="28" fill="none"/>
    </g>
    <g id="Rectangle_355" data-name="Rectangle 355" transform="translate(1639 221)" fill="none" stroke="#fe5eae" stroke-width="1">
      <rect width="29" height="29" stroke="none"/>
      <rect x="0.5" y="0.5" width="28" height="28" fill="none"/>
    </g>
    <g id="Rectangle_356" data-name="Rectangle 356" transform="translate(1583 221)" fill="none" stroke="#fe5eae" stroke-width="1" opacity="0.83">
      <rect width="29" height="29" stroke="none"/>
      <rect x="0.5" y="0.5" width="28" height="28" fill="none"/>
    </g>
    <g id="Rectangle_377" data-name="Rectangle 377" transform="translate(1415 249)" fill="none" stroke="#fe5eae" stroke-width="1" opacity="0.2">
      <rect width="29" height="29" stroke="none"/>
      <rect x="0.5" y="0.5" width="28" height="28" fill="none"/>
    </g>
    <g id="Rectangle_378" data-name="Rectangle 378" transform="translate(1667 221)" fill="none" stroke="#fe5eae" stroke-width="1">
      <rect width="29" height="29" stroke="none"/>
      <rect x="0.5" y="0.5" width="28" height="28" fill="none"/>
    </g>
    <g id="Rectangle_384" data-name="Rectangle 384" transform="translate(1695 221)" fill="none" stroke="#fe5eae" stroke-width="1">
      <rect width="29" height="29" stroke="none"/>
      <rect x="0.5" y="0.5" width="28" height="28" fill="none"/>
    </g>
    <g id="Rectangle_392" data-name="Rectangle 392" transform="translate(1751 221)" fill="none" stroke="#fe5eae" stroke-width="1">
      <rect width="29" height="29" stroke="none"/>
      <rect x="0.5" y="0.5" width="28" height="28" fill="none"/>
    </g>
    <g id="Rectangle_398" data-name="Rectangle 398" transform="translate(1807 221)" fill="none" stroke="#fe5eae" stroke-width="1">
      <rect width="29" height="29" stroke="none"/>
      <rect x="0.5" y="0.5" width="28" height="28" fill="none"/>
    </g>
    <g id="Rectangle_405" data-name="Rectangle 405" transform="translate(1891 221)" fill="none" stroke="#fe5eae" stroke-width="1">
      <rect width="29" height="29" stroke="none"/>
      <rect x="0.5" y="0.5" width="28" height="28" fill="none"/>
    </g>
    <g id="Rectangle_361" data-name="Rectangle 361" transform="translate(1639 305)" fill="none" stroke="#fe5eae" stroke-width="1">
      <rect width="29" height="29" stroke="none"/>
      <rect x="0.5" y="0.5" width="28" height="28" fill="none"/>
    </g>
    <g id="Rectangle_385" data-name="Rectangle 385" transform="translate(1695 305)" fill="none" stroke="#fe5eae" stroke-width="1">
      <rect width="29" height="29" stroke="none"/>
      <rect x="0.5" y="0.5" width="28" height="28" fill="none"/>
    </g>
    <g id="Rectangle_396" data-name="Rectangle 396" transform="translate(1807 305)" fill="none" stroke="#fe5eae" stroke-width="1">
      <rect width="29" height="29" stroke="none"/>
      <rect x="0.5" y="0.5" width="28" height="28" fill="none"/>
    </g>
    <g id="Rectangle_404" data-name="Rectangle 404" transform="translate(1891 305)" fill="none" stroke="#fe5eae" stroke-width="1">
      <rect width="29" height="29" stroke="none"/>
      <rect x="0.5" y="0.5" width="28" height="28" fill="none"/>
    </g>
    <g id="Rectangle_406" data-name="Rectangle 406" transform="translate(1835 305)" fill="none" stroke="#fe5eae" stroke-width="1">
      <rect width="29" height="29" stroke="none"/>
      <rect x="0.5" y="0.5" width="28" height="28" fill="none"/>
    </g>
    <g id="Rectangle_407" data-name="Rectangle 407" transform="translate(1751 305)" fill="none" stroke="#fe5eae" stroke-width="1">
      <rect width="29" height="29" stroke="none"/>
      <rect x="0.5" y="0.5" width="28" height="28" fill="none"/>
    </g>
    <g id="Rectangle_381" data-name="Rectangle 381" transform="translate(1667 333)" fill="none" stroke="#fe5eae" stroke-width="1">
      <rect width="29" height="29" stroke="none"/>
      <rect x="0.5" y="0.5" width="28" height="28" fill="none"/>
    </g>
    <g id="Rectangle_388" data-name="Rectangle 388" transform="translate(1723 333)" fill="none" stroke="#fe5eae" stroke-width="1">
      <rect width="29" height="29" stroke="none"/>
      <rect x="0.5" y="0.5" width="28" height="28" fill="none"/>
    </g>
    <g id="Rectangle_408" data-name="Rectangle 408" transform="translate(1863 333)" fill="none" stroke="#fe5eae" stroke-width="1">
      <rect width="29" height="29" stroke="none"/>
      <rect x="0.5" y="0.5" width="28" height="28" fill="none"/>
    </g>
    <g id="Rectangle_409" data-name="Rectangle 409" transform="translate(1443 221)" fill="none" stroke="#fe5eae" stroke-width="1" opacity="0.62">
      <rect width="29" height="29" stroke="none"/>
      <rect x="0.5" y="0.5" width="28" height="28" fill="none"/>
    </g>
  </g>
</svg>
