<svg xmlns="http://www.w3.org/2000/svg" width="10.442" height="11.934" viewBox="0 0 10.442 11.934">
  <path id="copy_layer_icon" d="M7.459,10.442v.932a.559.559,0,0,1-.559.559H.559A.559.559,0,0,1,0,11.375V2.8a.559.559,0,0,1,.559-.559H2.238v6.9a1.307,1.307,0,0,0,1.305,1.305Zm0-8.018V0H3.543a.559.559,0,0,0-.559.559V9.137a.559.559,0,0,0,.559.559h6.34a.559.559,0,0,0,.559-.559V2.984H8.018A.561.561,0,0,1,7.459,2.424Zm2.82-.723L8.742.164A.559.559,0,0,0,8.346,0H8.2V2.238h2.238V2.1a.559.559,0,0,0-.164-.4Z" fill="#a4a4a4"/>
</svg>
