<svg id="Icon_awesome-github" data-name="Icon awesome-github" xmlns="http://www.w3.org/2000/svg" width="19.244" height="18.763" viewBox="0 0 19.244 18.763">
  <path id="Icon_awesome-github-2" data-name="Icon awesome-github" d="M6.437,15.67c0,.078-.089.14-.2.14-.128.012-.217-.05-.217-.14s.089-.14.2-.14S6.437,15.581,6.437,15.67ZM5.23,15.5c-.027.078.05.167.167.19a.182.182,0,0,0,.241-.078c.023-.078-.05-.167-.167-.2A.2.2,0,0,0,5.23,15.5Zm1.715-.066c-.113.027-.19.1-.178.19s.113.128.229.1.19-.1.178-.178S7.057,15.418,6.945,15.43ZM9.5.563A9.3,9.3,0,0,0,0,10.029a9.727,9.727,0,0,0,6.576,9.28c.5.089.671-.217.671-.469s-.012-1.567-.012-2.382c0,0-2.716.582-3.286-1.156,0,0-.442-1.129-1.079-1.42,0,0-.888-.609.062-.6a2.048,2.048,0,0,1,1.5,1,2.051,2.051,0,0,0,2.828.811,2.156,2.156,0,0,1,.621-1.307c-2.169-.241-4.357-.555-4.357-4.287a2.94,2.94,0,0,1,.916-2.285,3.666,3.666,0,0,1,.1-2.634C5.35,4.33,7.216,5.629,7.216,5.629a9.166,9.166,0,0,1,4.873,0s1.866-1.3,2.677-1.048a3.664,3.664,0,0,1,.1,2.634,3.016,3.016,0,0,1,1,2.285c0,3.744-2.285,4.043-4.454,4.287a2.294,2.294,0,0,1,.66,1.8c0,1.307-.012,2.925-.012,3.244,0,.252.178.559.671.469a9.637,9.637,0,0,0,6.51-9.273A9.513,9.513,0,0,0,9.5.563ZM3.771,13.944c-.05.039-.039.128.027.2s.151.089.2.039.039-.128-.027-.2S3.822,13.893,3.771,13.944Zm-.419-.314c-.027.05.012.113.089.151a.115.115,0,0,0,.167-.027c.027-.05-.012-.113-.089-.151C3.441,13.579,3.379,13.591,3.352,13.63Zm1.257,1.381c-.062.05-.039.167.05.241.089.089.2.1.252.039s.027-.167-.05-.241C4.776,14.96,4.66,14.949,4.609,15.011Zm-.442-.57c-.062.039-.062.14,0,.229s.167.128.217.089a.177.177,0,0,0,0-.241C4.33,14.429,4.229,14.39,4.167,14.44Z" transform="translate(0 -0.563)" fill="#8a8787"/>
</svg>
