<svg xmlns="http://www.w3.org/2000/svg" width="48" height="48" viewBox="0 0 48 48">
  <g id="no_fee_mint_icon" transform="translate(-937 -2118)">
    <g id="Ellipse_7" data-name="Ellipse 7" transform="translate(937 2118)" fill="none" stroke="#fe5eae" stroke-width="1">
      <circle cx="24" cy="24" r="24" stroke="none"/>
      <circle cx="24" cy="24" r="23.5" fill="none"/>
    </g>
    <path id="Icon_awesome-gas-pump" data-name="Icon awesome-gas-pump" d="M10.064,13.419H.479A.481.481,0,0,0,0,13.9v.958a.481.481,0,0,0,.479.479h9.585a.481.481,0,0,0,.479-.479V13.9A.481.481,0,0,0,10.064,13.419Zm4.709-10.2L12.347.788a.481.481,0,0,0-.677,0l-.338.338a.481.481,0,0,0,0,.677L12.46,2.932v1.86A1.675,1.675,0,0,0,13.9,6.446v4.816a.719.719,0,1,1-1.438,0V10.3A2.636,2.636,0,0,0,9.825,7.668h-.24V1.917A1.919,1.919,0,0,0,7.668,0H2.875A1.919,1.919,0,0,0,.958,1.917V12.46H9.585V9.106h.24a1.2,1.2,0,0,1,1.2,1.2v.833a2.246,2.246,0,0,0,1.932,2.273,2.163,2.163,0,0,0,2.381-2.148V4.571a1.921,1.921,0,0,0-.563-1.357Zm-7.1,2.537H2.875V1.917H7.668Z" transform="translate(955.411 2134.332)" fill="#fe5eae"/>
  </g>
</svg>
