<svg xmlns="http://www.w3.org/2000/svg" width="48" height="48" viewBox="0 0 48 48">
  <g id="polyfungibility_icon" transform="translate(-1363 -2118)">
    <g id="Ellipse_6" data-name="Ellipse 6" transform="translate(1363 2118)" fill="none" stroke="#fe5eae" stroke-width="1">
      <circle cx="24" cy="24" r="24" stroke="none"/>
      <circle cx="24" cy="24" r="23.5" fill="none"/>
    </g>
    <g id="Group_22" data-name="Group 22" transform="translate(1375.013 2132.726)">
      <g id="Group_1" data-name="Group 1" transform="translate(10.533 8.8)">
        <path id="Path_1" data-name="Path 1" d="M475.441,421.889l-.649-.525.566-.677.649.525Z" transform="translate(-474.793 -420.687)" fill="#fe5eae"/>
      </g>
      <g id="Group_2" data-name="Group 2" transform="translate(9.646 10.771)">
        <path id="Path_2" data-name="Path 2" d="M463.8,448.71l-.9.254-.274-.883.9-.254Z" transform="translate(-462.627 -447.827)" fill="#fe5eae"/>
      </g>
      <g id="Group_3" data-name="Group 3" transform="translate(10.82 12.647)">
        <path id="Path_3" data-name="Path 3" d="M480.123,474.039l-.326.923-1-.278.326-.923Z" transform="translate(-478.801 -473.761)" fill="#fe5eae"/>
      </g>
      <g id="Group_4" data-name="Group 4" transform="translate(13.283 12.522)">
        <path id="Path_4" data-name="Path 4" d="M513.614,472.376l.654.819-.884.7-.654-.819Z" transform="translate(-512.73 -472.376)" fill="#fe5eae"/>
      </g>
      <g id="Group_5" data-name="Group 5" transform="translate(15.077 10.476)">
        <path id="Path_5" data-name="Path 5" d="M537.064,443.94l1.174-.088.095,1.17-1.174.088Z" transform="translate(-537.064 -443.852)" fill="#fe5eae"/>
      </g>
      <g id="Group_6" data-name="Group 6" transform="translate(13.792 7.585)">
        <path id="Path_6" data-name="Path 6" d="M519.959,405.281l.656-1.065,1.149.6-.656,1.065Z" transform="translate(-519.959 -404.216)" fill="#fe5eae"/>
      </g>
      <g id="Group_7" data-name="Group 7" transform="translate(10.614 6.803)">
        <path id="Path_7" data-name="Path 7" d="M476.935,395.326l-.58-1.187,1.28-.643.58,1.187Z" transform="translate(-476.355 -393.496)" fill="#fe5eae"/>
      </g>
      <g id="Group_8" data-name="Group 8" transform="translate(8.067 9.172)">
        <path id="Path_8" data-name="Path 8" d="M442.739,427.855l-1.47-.191.206-1.48,1.47.191Z" transform="translate(-441.269 -426.184)" fill="#fe5eae"/>
      </g>
      <g id="Group_9" data-name="Group 9" transform="translate(8.23 12.489)">
        <path id="Path_9" data-name="Path 9" d="M446.247,473.731l-1.1,1.159-1.25-1.04,1.1-1.159Z" transform="translate(-443.896 -472.691)" fill="#fe5eae"/>
      </g>
      <g id="Group_10" data-name="Group 10" transform="translate(12.012 13.852)">
        <path id="Path_10" data-name="Path 10" d="M497.543,496.425l.387,1.626-1.754.474-.387-1.626Z" transform="translate(-495.789 -496.425)" fill="#fe5eae"/>
      </g>
      <g id="Group_11" data-name="Group 11" transform="translate(15.743 11.87)">
        <path id="Path_11" data-name="Path 11" d="M548.078,464.329l1.758.613-.661,1.79-1.758-.613Z" transform="translate(-547.417 -464.329)" fill="#fe5eae"/>
      </g>
      <g id="Group_12" data-name="Group 12" transform="translate(15.862 7.109)">
        <path id="Path_12" data-name="Path 12" d="M549.639,399.538l1.675-1.161,1.253,1.613-1.675,1.161Z" transform="translate(-549.639 -398.377)" fill="#fe5eae"/>
      </g>
      <g id="Group_13" data-name="Group 13" transform="translate(12.121 4.358)">
        <path id="Path_13" data-name="Path 13" d="M497.467,362.069l-.029-2.123,2.29-.142.029,2.123Z" transform="translate(-497.438 -359.804)" fill="#fe5eae"/>
      </g>
      <g id="Group_14" data-name="Group 14" transform="translate(6.273 5.6)">
        <path id="Path_14" data-name="Path 14" d="M419.386,380.9l-2-1.211,1.307-2.06,2,1.211Z" transform="translate(-417.391 -377.631)" fill="#fe5eae"/>
      </g>
      <g id="Group_15" data-name="Group 15" transform="translate(4.446 11.127)">
        <path id="Path_15" data-name="Path 15" d="M395.654,457.394l-2.383,1.018-1.1-2.328,2.382-1.018Z" transform="translate(-392.174 -455.065)" fill="#fe5eae"/>
      </g>
      <g id="Group_16" data-name="Group 16" transform="translate(8.626 16.016)">
        <path id="Path_16" data-name="Path 16" d="M453.432,523.449l-.549,2.65-2.859-.408.549-2.65Z" transform="translate(-450.025 -523.041)" fill="#fe5eae"/>
      </g>
      <g id="Group_17" data-name="Group 17" transform="translate(15.206 14.526)">
        <path id="Path_17" data-name="Path 17" d="M544.447,504.714l2.124,2.018-2.176,2.231-2.124-2.018Z" transform="translate(-542.271 -504.714)" fill="#fe5eae"/>
      </g>
      <g id="Group_18" data-name="Group 18" transform="translate(19.09 8.335)">
        <path id="Path_18" data-name="Path 18" d="M595.735,417.082l3.214-.659.711,3.179-3.214.659Z" transform="translate(-595.735 -416.423)" fill="#fe5eae"/>
      </g>
      <g id="Group_19" data-name="Group 19" transform="translate(14.381 1.354)">
        <path id="Path_19" data-name="Path 19" d="M537.817,319.069l1.405-3.16,3.408,1.238-1.405,3.16Z" transform="translate(-537.817 -315.909)" fill="#fe5eae"/>
      </g>
      <g id="Group_20" data-name="Group 20" transform="translate(5.744 0)">
        <rect id="Rectangle_1" data-name="Rectangle 1" width="3.974" height="3.684" transform="translate(0 2.222) rotate(-34)" fill="#fe5eae"/>
      </g>
      <g id="Group_21" data-name="Group 21" transform="translate(0 7.592)">
        <rect id="Rectangle_2" data-name="Rectangle 2" width="4.139" height="4.139" fill="#fe5eae"/>
      </g>
    </g>
  </g>
</svg>
