<svg id="redo_button" xmlns="http://www.w3.org/2000/svg" width="32" height="32" viewBox="0 0 32 32">
  <path id="Icon_awesome-undo" data-name="Icon awesome-undo" d="M9.068,6.966h6.221a.373.373,0,0,0,.373-.373V.373A.373.373,0,0,0,15.289,0H13.8a.373.373,0,0,0-.373.373V2.8a7.7,7.7,0,1,0-.553,10.859.373.373,0,0,0,.015-.541l-1.055-1.055a.372.372,0,0,0-.509-.016,5.466,5.466,0,1,1,.8-7.314H9.068A.373.373,0,0,0,8.7,5.1V6.594a.373.373,0,0,0,.373.373Z" transform="translate(8 8)" fill="#a4a4a4"/>
  <rect id="Rectangle_469" data-name="Rectangle 469" width="32" height="32" rx="6" transform="translate(0)" fill="none"/>
</svg>
