<svg xmlns="http://www.w3.org/2000/svg" width="37.345" height="37.345" viewBox="0 0 37.345 37.345">
  <g id="settings_button" transform="translate(0 0)">
    <g id="Group_363" data-name="Group 363" transform="translate(0 0)">
      <g id="Component_47_21" data-name="Component 47 – 21">
        <g id="Path_75" data-name="Path 75" fill="#fbfafd">
          <path d="M 30.34298515319824 36.84500122070313 L 7.002225399017334 36.84500122070313 C 3.416885614395142 36.84500122070313 0.5000055432319641 33.92813110351563 0.5000055432319641 30.34282112121582 L 0.5000055432319641 7.002190589904785 C 0.5000055432319641 3.416870594024658 3.416885614395142 0.5000005960464478 7.002225399017334 0.5000005960464478 L 30.34298515319824 0.5000005960464478 C 33.92832565307617 0.5000005960464478 36.84521484375 3.416870594024658 36.84521484375 7.002190589904785 L 36.84521484375 30.34282112121582 C 36.84521484375 33.92813110351563 33.92832565307617 36.84500122070313 30.34298515319824 36.84500122070313 Z" stroke="none"/>
          <path d="M 7.002225875854492 1 C 3.692584991455078 1 0.9999961853027344 3.692569732666016 0.9999961853027344 7.002191543579102 L 0.9999961853027344 30.34281158447266 C 0.9999961853027344 33.65243148803711 3.692584991455078 36.34500122070313 7.002225875854492 36.34500122070313 L 30.34298515319824 36.34500122070313 C 33.65262603759766 36.34500122070313 36.34520721435547 33.65243148803711 36.34520721435547 30.34281158447266 L 36.34520721435547 7.002191543579102 C 36.34520721435547 3.692569732666016 33.65262603759766 1 30.34298515319824 1 L 7.002225875854492 1 M 7.002225875854492 0 L 30.34298515319824 0 C 34.210205078125 0 37.34520721435547 3.134990692138672 37.34520721435547 7.002191543579102 L 37.34520721435547 30.34281158447266 C 37.34520721435547 34.21001052856445 34.210205078125 37.34500122070313 30.34298515319824 37.34500122070313 L 7.002225875854492 37.34500122070313 C 3.135005950927734 37.34500122070313 -3.814697265625e-06 34.21001052856445 -3.814697265625e-06 30.34281158447266 L -3.814697265625e-06 7.002191543579102 C -3.814697265625e-06 3.134990692138672 3.135005950927734 0 7.002225875854492 0 Z" stroke="none" fill="#cbc8d5"/>
        </g>
      </g>
    </g>
    <path id="Icon_ionic-md-settings" data-name="Icon ionic-md-settings" d="M16.132,11.351a4.535,4.535,0,0,0,.037-.725c0-.254-.037-.471-.037-.725L17.69,8.7a.333.333,0,0,0,.074-.471l-1.483-2.5a.361.361,0,0,0-.445-.145l-1.854.725a5.4,5.4,0,0,0-1.261-.725l-.26-1.921a.4.4,0,0,0-.371-.29H9.124a.4.4,0,0,0-.371.29l-.3,1.921A6.279,6.279,0,0,0,7.2,6.312L5.342,5.586a.347.347,0,0,0-.445.145l-1.483,2.5a.438.438,0,0,0,.074.471L5.082,9.9c0,.254-.037.471-.037.725s.037.471.037.725l-1.557,1.2a.333.333,0,0,0-.074.471l1.483,2.5a.361.361,0,0,0,.445.145l1.854-.725a5.4,5.4,0,0,0,1.261.725l.3,1.921a.359.359,0,0,0,.371.29h2.967a.4.4,0,0,0,.371-.29l.3-1.921a6.276,6.276,0,0,0,1.261-.725l1.854.725a.347.347,0,0,0,.445-.145l1.483-2.5a.437.437,0,0,0-.074-.471Zm-5.525,1.813a2.538,2.538,0,1,1,2.6-2.538A2.551,2.551,0,0,1,10.607,13.164Z" transform="translate(8.047 7.923)" fill="#a4a4a4"/>
  </g>
</svg>
