<svg xmlns="http://www.w3.org/2000/svg" width="57" height="56.331" viewBox="0 0 57 56.331">
  <g id="bucket_icon" transform="translate(0 0.327)">
    <g id="Group_351" data-name="Group 351" transform="translate(0.441 -0.327)">
      <g id="Rectangle_458" data-name="Rectangle 458" fill="#fbfafd" stroke="#b9b5c7" stroke-width="1" opacity="0.74">
        <rect width="56.331" height="56.331" rx="8" stroke="none"/>
        <rect x="0.5" y="0.5" width="55.331" height="55.331" rx="7.5" fill="none"/>
      </g>
    </g>
    <path id="Icon_zocial-bitbucket" data-name="Icon zocial-bitbucket" d="M2.574,3.492q0-1.215,2.571-2.065a19.856,19.856,0,0,1,6.2-.85,19.842,19.842,0,0,1,6.207.85q2.563.85,2.561,2.065,0,.243-1.458,8.909-.182.931-2.248,1.8a13.042,13.042,0,0,1-5.062.871A13.046,13.046,0,0,1,6.279,14.2q-2.065-.87-2.227-1.8Q2.575,4.018,2.574,3.492ZM4.741,15.256v-.081q0-.345.3-.344a.383.383,0,0,1,.243.1,7.025,7.025,0,0,0,2.47,1.174,11.464,11.464,0,0,0,2.551.465l1.033.061c.109,0,.253,0,.435-.011s.537-.04,1.064-.1a14.427,14.427,0,0,0,1.508-.252,10.874,10.874,0,0,0,1.59-.507,5.7,5.7,0,0,0,1.478-.83l.223-.1q.324,0,.324.344a.181.181,0,0,1-.02.081q-.446,2.45-.607,3.26-.222.992-1.944,1.65a11.321,11.321,0,0,1-4.05.657,11.322,11.322,0,0,1-4.049-.657q-1.721-.658-1.924-1.65Q4.983,16.593,4.741,15.256ZM5.733,3.188q0,.486,1.65.84a19.091,19.091,0,0,0,3.958.354,19.777,19.777,0,0,0,3.979-.344q1.65-.345,1.65-.83,0-.506-1.65-.861a19.214,19.214,0,0,0-3.979-.354,19.659,19.659,0,0,0-3.968.344Q5.733,2.682,5.733,3.188Z" transform="translate(25.513 12.757) rotate(34)" fill="#b9b5c7"/>
  </g>
</svg>
